<svg xmlns="http://www.w3.org/2000/svg" width="3840" height="1800" viewBox="0 0 1015.999 476.25" stroke="#fff"><g fill="#1a1a1a" stroke-width="7.937"><path d="M560.425 308.557c-2.094-2.097-2.001-3.627.36-5.991 1.74-1.737 2.625-1.95 8.16-1.95 7.23 0 9.738 1.209 9.738 4.686 0 3.828-2.052 4.842-9.786 4.842-5.826 0-7.128-.246-8.472-1.59m28.575.003c-.87-.873-1.587-2.304-1.587-3.177s.714-2.301 1.59-3.174c1.338-1.338 2.643-1.59 8.334-1.59s6.996.252 8.334 1.59c.87.873 1.587 2.301 1.587 3.174s-.714 2.304-1.59 3.177c-1.335 1.338-2.643 1.587-8.331 1.587s-6.996-.249-8.337-1.59m28.11-5.988c1.578-2.16 13.017-2.748 15.954-.822 2.31 1.512 2.682 5.196.726 7.152-7.302 3.09-21.783 1.992-16.68-6.33m27.78 5.598c-1.707-2.607-.897-5.781 1.731-6.78 1.11-.42 4.41-.765 7.344-.765 6.351 0 8.856 1.344 8.856 4.749 0 3.945-1.668 4.776-9.564 4.776-6.66 0-7.143-.114-8.367-1.98m28.248.393c-2.805 0-1.998-3.285-.069-5.67 1.395-1.719 2.103-1.872 8.796-1.872 6.288 0 7.431.21 8.403 1.542q2.34 3.198-.459 6c-1.341 1.338-2.646 1.587-8.337 1.587s-6.441-1.59-8.334-1.59m28.893.981c-1.635-1.089-2.523-3.723-1.857-5.49.996-2.631 3.243-3.426 9.684-3.426 5.106 0 6.09.24 7.59 1.836 2.049 2.178 2.16 3.54.492 5.925-1.116 1.593-1.896 1.761-8.136 1.752-3.795-.006-7.29-.276-7.773-.597m27.189-.843c0 2.04-1.656-5.361.45-6.84 1.23-.858 3.636-1.233 7.938-1.233 5.115 0 6.447.27 7.761 1.587 1.98 1.98 2.04 4.899.138 6.624-2.199 1.989-19.014-.138-16.287-.138m-229.266 19.881c-9.01-2.172-13.515-8.124-16.08-15.708l-1.182-3.501-235.494-.396-228.969-.795c-2.55-2.844-2.124-6.255.981-7.92 1.026-.546 75.456-.81 228.966-.81H482.5l.525-2.184c2.436-10.134 11.244-17.511 21.822-18.273 9.45-.681 15.486 2.346 21.951 11.01 2.295 3.075 8.735 8.055 8.735 14.244.003 4.65-2.741 7.179-5.765 10.71l-5.91 6.72c-5.256 6.348-14.198 8.141-23.904 6.9zm13.455-9.915c1.485-.69 3.807-2.886 5.16-4.878s3.834-4.98 5.517-6.645l3.057-3.021-2.883-2.535c-1.587-1.392-4.035-4.32-5.439-6.504-2.886-4.482-7.914-7.539-12.396-7.539-4.044 0-9.42 2.931-12.06 6.573-3.522 4.86-3.216 5.334 3.468 5.334 6.822 0 9.303 1.266 9.303 4.749 0 3.852-1.716 4.776-8.871 4.776-7.089 0-7.155.096-3.621 5.28 4.092 6.009 11.55 7.761 18.765 4.41m19.49-9.966c-1.875-2.07-1.659-5.89.45-7.369 1.23-.861 3.108-.704 7.446-.704 5.535 0 6.42.21 8.157 1.95 2.364 2.361 2.457 3.891.36 5.988-1.35 1.35-2.646 1.587-8.61 1.587-5.79 0-6.717.274-7.803-.923m226.642-1.705c-1.875-2.07-1.659-5.361.45-6.84 1.23-.861 3.639-1.233 7.974-1.233 5.535 0 6.42.21 8.16 1.95 2.361 2.361 2.454 3.891.36 5.985-1.35 1.35-2.649 1.59-8.61 1.59-5.793 0-7.251-.255-8.334-1.452m28.053-.138c-2.094-2.094-2.001-3.624.36-5.988 1.74-1.737 2.625-1.95 8.16-1.95 7.23 0 9.738 1.209 9.738 4.686 0 3.828-2.052 4.842-9.786 4.842-5.826 0-7.128-.246-8.472-1.59m28.575 0c-.87-.87-1.587-2.301-1.587-3.174s.714-2.301 1.59-3.174c1.338-1.338 2.643-1.59 8.334-1.59s6.996.252 8.334 1.59c.87.87 1.587 2.301 1.587 3.174s-.714 2.301-1.59 3.174c-1.335 1.341-2.643 1.59-8.331 1.59s-6.996-.249-8.337-1.59m28.11-5.988c1.578-2.16 13.017-2.748 15.954-.825 2.31 1.512 2.682 5.199.729 7.155-7.305 3.09-21.786 1.992-16.683-6.33m27.783 5.598c-1.71-2.607-.9-5.781 1.728-6.78 1.11-.42 4.41-.765 7.344-.765 6.351 0 8.856 1.344 8.856 4.749 0 3.942-1.668 4.776-9.564 4.776-6.66 0-7.143-.117-8.364-1.98m28.245.39c-2.805 0-1.998-3.282-.069-5.664 1.395-1.725 2.103-1.875 8.796-1.875 6.288 0 7.431.21 8.403 1.542q2.34 3.198-.459 6c-1.341 1.338-2.646 1.587-8.334 1.587s-6.444-1.59-8.337-1.59m28.893.981c-1.635-1.092-2.523-3.723-1.857-5.49.996-2.631 3.243-3.426 9.684-3.426 5.106 0 6.09.237 7.59 1.836 2.049 2.178 2.16 3.54.492 5.925-1.116 1.593-1.896 1.761-8.136 1.752-3.795-.006-7.29-.276-7.77-.597m27.186-.843c-1.653-1.191-1.656-5.361.45-6.84 1.23-.861 3.636-1.233 7.938-1.233 5.115 0 6.447.27 7.761 1.587 1.98 1.98 2.04 4.899.138 6.624-2.199 1.989-19.011-.048-16.287-.138m28.056-.138c-1.857-1.857-2.022-3.861-.492-5.955.825-1.128 2.37-1.578 6.297-1.83 4.752-.3 5.379-.153 7.239 1.71 2.451 2.448 2.562 3.963.45 6.075-1.26 1.263-2.646 1.59-6.747 1.59s-5.484-.327-6.747-1.59M815.93 239.115c-.873-.87-1.59-2.244-1.59-3.051 0-1.56 2.331-4.092 3.768-4.092.474 0 1.56-.951 2.406-2.115 1.71-2.349 5.511-2.892 7.677-1.095 2.862 2.376.48 8.268-4.356 10.77-3.132 1.62-6.024 1.47-7.905-.414m-170.754-12.423c-1.464-1.761-1.8-14.262-.462-16.947 1.242-2.481 4.839-3.063 6.978-1.128 1.299 1.176 1.518 2.502 1.518 9.132 0 5.994-.282 8.04-1.248 9.006-1.629 1.629-5.412 1.596-6.786-.06m178.689-9.012c-2.349-2.352-2.31-13.152.06-16.164 1.878-2.388 3.585-2.628 6.114-.858 1.611 1.128 1.764 1.89 1.764 8.688s-.153 7.56-1.764 8.685c-2.373 1.665-4.266 1.557-6.171-.351m-122.874-20.001c-1.305-1.305-1.2-5.79.159-6.921.717-.594 3.735-.84 8.505-.69 7.053.216 7.446.324 8.565 2.319 1.05 1.875 1.029 2.307-.189 4.167-1.305 1.992-1.659 2.076-8.724 2.076-4.668 0-7.71-.348-8.316-.954m28.143-.498c-1.725-1.905-1.668-4.332.138-5.967 1.113-1.008 3.039-1.314 8.277-1.314 7.44 0 9.321.882 9.321 4.368 0 3.501-1.872 4.365-9.459 4.365-5.739 0-7.194-.255-8.28-1.452m28.215.501c-1.17-1.17-1.23-4.185-.129-6.246.72-1.35 1.719-1.536 8.277-1.536 5.721 0 7.746.291 8.703 1.248 1.44 1.44 1.605 3.747.426 5.949-.726 1.356-1.722 1.536-8.571 1.536-4.971 0-8.094-.342-8.706-.954m29.388-1.077c-2.178-1.524-2.34-5.139-.312-6.975.798-.72 1.779-1.317 2.181-1.32s2.301-1.254 4.218-2.778c4.032-3.204 3.429-3.021 6.021-1.842 4.845 2.208 2.988 7.119-4.377 11.571-4.881 2.952-5.325 3.03-7.731 1.344" paint-order="stroke fill markers"/><path d="M645.17 195.726c-.783-.954-1.05-3.552-.96-9.288.108-6.621.369-8.136 1.542-8.994 1.995-1.461 4.605-1.281 6.144.42 1.857 2.049 1.908 16.095.066 17.937-1.635 1.638-5.415 1.596-6.792-.075m35.151-1.857c-4.38-3.168-7.827-8.073-9.339-13.278-1.128-3.879-1.125-4.425.039-6.201 1.53-2.34 5.166-2.628 6.96-.558.663.762 1.437 2.61 1.716 4.101.66 3.495 3.774 7.545 7.71 10.026 3.48 2.202 4.095 4.776 1.659 6.981-2.16 1.956-5.061 1.602-8.745-1.071m143.535-4.77c-1.416-1.413-1.56-2.376-1.26-8.37.378-7.47 1.17-9.081 4.485-9.081 3.885 0 4.722 1.692 4.722 9.525 0 5.334-.3 7.332-1.245 8.28-1.722 1.719-4.791 1.56-6.702-.354" paint-order="stroke fill markers"/><path d="M798.467 173.235c-1.35-1.35-1.59-2.646-1.59-8.685 0-6.435.168-7.215 1.767-8.334 2.364-1.656 3.942-1.56 6.024.381 1.521 1.419 1.737 2.448 1.737 8.334 0 5.658-.252 6.966-1.59 8.304-.87.873-2.301 1.59-3.174 1.59s-2.301-.717-3.174-1.59m-153.297-8.466c-.771-.936-1.059-3.519-.987-8.88.09-6.834.276-7.704 1.896-9.018 1.98-1.602 4.509-1.275 6.138.801 1.224 1.554 1.356 14.67.171 16.884-1.044 1.956-5.67 2.091-7.218.213" paint-order="stroke fill markers"/><path d="M671.162 161.22c-1.572-2.247-.882-14.673.93-16.758 1.659-1.908 4.326-1.74 6.315.396 1.506 1.62 1.62 2.436 1.212 8.79-.285 4.488-.852 7.41-1.578 8.136-1.722 1.722-5.496 1.41-6.879-.564m152.424-.885c-1.515-2.43-.666-15.384 1.08-16.488 1.716-1.086 3.369-.942 5.373.462 1.611 1.128 1.764 1.887 1.764 8.703 0 6.57-.183 7.566-1.533 8.289-2.589 1.386-5.481.969-6.684-.963" paint-order="stroke fill markers"/><path d="M797.321 143.691c-1.89-2.7-1.734-14.208.216-15.972 1.95-1.77 4.557-1.656 6.486.273 1.335 1.335 1.59 2.646 1.59 8.28 0 5.022-.312 6.999-1.251 7.935-1.851 1.851-5.574 1.578-7.041-.516m-151.698-8.886c-1.341-.984-1.542-2.124-1.542-8.805 0-7.107.138-7.785 1.875-9.192 2.382-1.929 3.684-1.911 5.667.072 1.362 1.359 1.59 2.646 1.59 9.006 0 6.177-.246 7.635-1.455 8.73-1.779 1.611-4.092 1.68-6.135.186m179.355-1.068c-1.926-1.284-2.496-3.975-2.103-9.9.432-6.564 1.227-7.947 4.563-7.947 3.696 0 4.365 1.38 4.365 8.97 0 5.298-.3 7.29-1.245 8.238-1.311 1.308-4.098 1.629-5.58.639m-153.024-1.884c-.93-1.329-1.089-3.18-.729-8.532.51-7.629 1.071-8.82 4.155-8.82 2.868 0 4.836 1.569 4.986 3.975.39 6.303-.261 12.672-1.416 13.83-1.821 1.818-5.574 1.578-6.996-.45" paint-order="stroke fill markers"/><path d="M796.604 115.428c-.996-1.104-1.314-3.021-1.314-7.989 0-3.597.372-7.23.822-8.073.987-1.845 5.643-2.121 7.053-.423.51.612 1.14 4.188 1.407 7.944.414 5.895.285 7.044-.951 8.409-1.791 1.98-5.286 2.046-7.017.132m26.253-3.639c-1.842-1.845-3.174-5.856-2.643-7.968 1.251-4.986 7.38-4.179 9.558 1.26 1.278 3.201.768 5.736-1.461 7.221-1.428.954-4.251.69-5.454-.513m-173.163-5.682c-2.52-2.52-1.563-5.502 3.006-9.408 5.754-4.914 8.856-4.86 10.401.18.468 1.521-.198 2.541-4.014 6.15-4.773 4.512-7.17 5.298-9.39 3.078" paint-order="stroke fill markers"/><path d="M673.817 103.521c-1.566-1.269-1.776-2.118-1.65-6.642.129-4.749-.03-5.298-1.866-6.501-1.512-.99-2.01-2.001-2.01-4.068 0-2.37.525-3.135 3.771-5.499 6.696-4.881 11.688-6.96 18.282-7.629 4.716-.477 6.522-.366 7.851.483 2.4 1.533 3.018 4.02 1.554 6.255-1.056 1.614-1.98 1.896-7.083 2.154-4.938.249-6.33.648-8.772 2.511l-2.904 2.214v7.851c0 7.215-.141 7.95-1.764 9.09-2.274 1.59-3.219 1.554-5.409-.219m132.282-9.36c-3.198-2.631-4.458-4.218-4.458-5.61 0-3.036 1.431-5.01 3.633-5.01 2.325 0 10.374 5.808 11.064 7.98.801 2.52-2.22 6.309-5.028 6.309-.414 0-2.76-1.65-5.211-3.669" paint-order="stroke fill markers"/><path d="M791.099 85.329l-2.976-2.979-8.124-.27c-5.949-.198-8.496-.6-9.51-1.512-1.572-1.404-1.782-3.546-.57-5.808.744-1.389 1.743-1.536 10.449-1.536 8.838 0 9.9.162 13.017 1.986 5.754 3.372 8.442 8.814 5.88 11.901-1.758 2.115-4.971 1.413-8.166-1.782m-79.425-4.824c-1.611-1.782-1.68-4.092-.189-6.138.942-1.284 2.31-1.587 8.259-1.815 6.39-.246 7.305-.102 8.796 1.389 2.049 2.049 2.142 4.953.21 6.699-2.205 1.998-15.24 1.893-17.076-.138" paint-order="stroke fill markers"/><path d="M741.041 80.505c-1.56-1.728-1.689-4.104-.321-5.892.765-.996 2.697-1.35 8.406-1.539 6.981-.234 7.5-.138 8.928 1.626 1.932 2.382 1.914 3.684-.069 5.667-1.35 1.35-2.646 1.59-8.61 1.59-5.79 0-7.248-.255-8.331-1.455m-335.088-4.548c-16.992-11.091-17.064-11.148-17.064-13.704 0-3.318 2.631-5.46 5.397-4.392 4.215 1.623 27.75 17.718 28.149 19.251.678 2.592-1.17 5.223-3.798 5.412-1.788.126-4.875-1.47-12.684-6.567m181.86 5.766c-.981-.717-1.326-1.839-1.146-3.726.24-2.49.966-3.15 9.39-8.532 18.249-11.667 19.707-12.432 21.84-11.46 2.169.99 3.285 4.116 2.178 6.096-1.068 1.905-27.291 18.63-29.223 18.642-.9.006-2.268-.453-3.039-1.02M454.784 67.401c-1.26-.648-4.176-5.934-9.693-17.592-8.55-18.072-8.904-19.788-4.374-21.381 1.854-.651 2.475-.471 4.056 1.176 2.301 2.4 16.35 32.046 16.35 34.5 0 2.991-3.441 4.779-6.339 3.297" paint-order="stroke fill markers"/><path d="M549.449 66.675c-1.992-2.577-1.467-4.248 6.525-20.778 8.751-18.096 9.75-19.341 13.809-17.169 3.369 1.803 2.862 3.75-5.511 21.084-4.428 9.165-8.463 16.926-8.97 17.25-1.461.93-5.016.696-5.85-.39m-46.476-3.303c-.864-.861-1.251-5.166-1.677-18.588-.303-9.606-.312-18.477-.018-19.71 1.149-4.833 4.521-6.387 7.467-3.441 1.5 1.5 1.587 2.646 1.587 20.91 0 17.712-.12 19.434-1.452 20.64-1.779 1.608-4.404 1.692-5.907.189" paint-order="stroke fill markers"/></g><g fill="#2b501d" stroke-width="7.937"><path d="M488.111 191.493c-.873-.873-1.59-2.304-1.59-3.177s.717-2.301 1.59-3.174c1.488-1.488 2.637-1.587 18.453-1.575 9.279.006 17.262.273 17.742.594s1.284 1.368 1.788 2.325c1.182 2.241-.174 5.478-2.559 6.12-.93.249-8.922.456-17.763.462-15.024.012-16.179-.09-17.661-1.575" paint-order="stroke fill markers"/><path d="M424.211 249.036c-4.338 0-8.778-6.471-9.891-10.602-.606-2.256-.804-20.94-.648-61.407l.222-58.164 1.83-4.047c1.011-2.226 3.33-5.478 5.16-7.23 6.861-6.555 24.81-20.37 29.07-22.368l4.422-2.073h105.57l4.419 2.073c4.26 1.998 22.212 15.81 29.07 22.371 1.83 1.749 4.152 5.001 5.16 7.23l1.83 4.044.225 58.164-.63 61.329c-1.086 4.038-5.037 8.541-9.111 10.392-3.012 1.368-7.482 1.446-83.352 1.428l-83.343-1.14m161.133-8.31c6.384-1.479 5.955 3.009 5.94-62.22l-.012-58.056-1.794-3.168c-1.632-2.88-15.579-15.018-16.359-14.238-.177.177.15 17.934.72 39.462l.6 44.01c-.825 9.084-6.774 16.803-15.453 20.052-4.095 1.53-6.096 1.59-51.657 1.56-52.47-.036-50.841.111-58.428-5.28-4.197-2.979-8.139-9.399-8.925-14.526-.3-1.968-.09-21.9.471-44.295l.681-41.058c-.183-.186-3.834 2.544-8.103 6.069-4.932 4.068-8.175 7.383-8.883 9.084-.93 2.22-1.119 12.534-1.119 60.3l.855 59.223c2.061 3.849.789 3.789 82.092 3.804l79.374-.723m-27.582-43.494c4.668-2.496 7.389-6.87 7.86-12.63.207-2.541-.141-22.785-.774-44.988-1.266-44.478-.924-42.012-6.399-46.101-2.148-1.605-3.129-1.641-49.41-1.854-29.91-.138-48.3.078-50.181.582-1.635.441-3.996 1.872-5.25 3.18-2.148 2.241-2.31 2.904-2.889 11.718-.336 5.139-1.008 24.882-1.488 43.872-.906 35.709-.831 37.176 2.184 41.856 1.29 2.01 5.493 4.794 8.727 5.784 1.194.366 22.89.6 48.21.525l46.035-.144z" paint-order="stroke fill markers"/></g><g fill="#1a1a1a" stroke-width="7.937"><path d="M658.964 239.352c-2.202-2.16-2.256-3.732-.198-5.79 1.377-1.377 2.646-1.59 9.525-1.59 6.99 0 8.136.198 9.594 1.656 1.635 1.635 1.623 4.848-.021 6.537-.348.357-4.341.714-8.874.792-7.53.132-8.394-.006-10.026-1.605m39.489 1.554c-7.182-.261-8.73-1.077-8.73-4.596 0-3.387 2.283-4.338 10.428-4.338 7.893 0 9.642.609 10.545 3.66.582 1.968-1.527 4.788-3.909 5.226-.87.162-4.62.18-8.334.048m24.684-.774c-2.268-1.836-2.49-5.592-.42-7.104q1.434-1.056 9.102-1.056c6.417 0 7.878.24 8.979 1.452 1.611 1.782 1.68 4.092.186 6.138-.948 1.296-2.307 1.581-8.556 1.809-6.369.231-7.695.054-9.291-1.239m31.635.312c-2.445-1.215-3.012-4.83-1.089-6.954 1.176-1.299 2.502-1.518 9.189-1.518 6.756 0 8.028.216 9.402 1.59q2.802 2.796.459 6c-.96 1.311-2.22 1.56-8.568 1.692-4.56.096-8.202-.219-9.39-.81m31.191-.132c-2.115-1.521-2.4-5.235-.54-7.092.963-.963 3.012-1.248 9.006-1.248 6.507 0 7.968.234 9.072 1.452 1.611 1.782 1.68 4.092.186 6.138-1.575 2.154-14.979 2.721-17.724.75m-592.971-1.659c-4.587-2.286-6.675-4.74-8.049-9.459-.678-2.325-.861-18.99-.687-62.31l.24-59.13 2.175-4.125c1.788-3.39 4.554-6.054 15.48-14.913 7.317-5.934 15.27-11.76 17.67-12.942l4.365-2.154h106.362l4.386 2.058c4.641 2.178 22.224 15.849 29.028 22.569 7.416 7.329 7.068 3.78 7.068 71.814v59.133l-2.172 3.696c-1.611 2.742-3.237 4.224-6.309 5.754l-4.134 2.061H197.117zM357.5 230.85c1.479-.618 3.075-1.845 3.546-2.727.591-1.104.858-19.422.858-59.076v-57.474l-1.785-3.354c-1.626-3.054-15.549-15.54-16.392-14.7-.174.171.15 18.129.72 39.9l.573 44.049c-.606 5.88-3.969 11.94-8.7 15.678-7.191 5.691-5.766 5.562-59.82 5.316-47.466-.219-48.408-.255-52.011-1.92-5.268-2.436-9.84-6.891-12.381-12.066l-2.208-4.494.204-17.46 1.008-43.182.519-25.998c-.588-.588-15.288 11.916-16.812 14.295-1.551 2.421-1.587 3.834-1.587 60.942 0 57.348.03 58.5 1.59 60.228.87.972 2.298 2.058 3.174 2.415.87.36 36.51.672 79.2.702l80.304-1.074m-29.67-43.128c3.642-1.845 4.659-2.874 6.57-6.66l2.265-4.476-1.14-43.377c-1.074-41.016-1.221-43.488-2.706-45.48a22.2 22.2 0 0 0-3.765-3.741c-2.148-1.605-3.108-1.641-50.751-1.845-45.039-.192-48.756-.105-51.279 1.191-1.5.771-3.45 2.391-4.341 3.603-1.836 2.508-2.229 9.897-3.309 62.487-.567 27.447-.54 28.26 1.05 31.35.894 1.749 2.52 4.011 3.612 5.031 4.269 3.984 4.83 4.026 53.787 4.065l45.696.033zm-33.772 199.03c-6.957 0-13.275 3.027-18.99 8.808-5.739 5.805-8.694 12.456-8.694 19.911v.03c.069 5.121 1.707 9.456 5.001 12.9 3.33 3.471 7.692 5.16 12.9 5.16l-.099-.003a24 24 0 0 0 1.074.027v.003a21.9 21.9 0 0 0 7.23-1.176c2.424-.828 4.509-1.638 6.219-2.43a17.7 17.7 0 0 0 4.797-3.204l2.769-2.673.274-.281c.047 6.794 1.017 12.252 3.089 16.208a14.1 14.1 0 0 0 4.269 5.181c1.674 1.242 3.294 2.13 4.839 2.49a17.45 17.45 0 0 0 3.93.45h.084a21 21 0 0 0 3.78-.516c1.521-.351 3.135-1.206 4.803-2.4a13.41 13.41 0 0 0 4.305-5.208c2.124-4.056 3.09-9.687 3.09-16.716 0-6.585-.84-11.976-2.64-16.017l-.006-.015c-1.467-3.228-3.462-5.67-6.099-7.098-2.403-1.299-4.854-1.983-7.383-1.983-5.034 0-9.018 2.121-11.904 6.294l-.051.078c-2.274 3.63-3.56 8.481-3.967 14.399-.169-.206-.341-.398-.506-.563-.633-.633-1.473-1.461-2.709-1.461-1.209 0-2.091.969-2.691 1.635l-.03.039c-4.146 4.824-9.447 7.26-15.807 7.26h-.378c-1.674 0-3.009-.597-3.906-1.575l-.159-.153c-1.038-.921-1.728-2.466-1.734-4.887.06-2.085.669-5.466 1.911-10.434 1.188-4.752 3.045-8.265 5.469-10.686 1.254-1.254 2.373-2.037 3.384-2.472l.141-.066c1.396-.72 2.861-1.08 4.395-1.08a12 12 0 0 1 1.254.069 12.9 12.9 0 0 0-.648.765c-1.026 1.308-1.485 2.808-1.485 4.497s.453 3.219 1.725 4.374c1.188 1.083 2.628 1.485 4.233 1.485h.072c2.343-.081 4.374-.951 5.964-2.625 1.584-1.668 2.364-3.723 2.364-6.057v-.054c-.078-3.147-1.401-5.646-3.942-7.551-2.475-1.857-5.727-2.679-9.537-2.679zm15.57 53.28l-.024-.039.03.054zm13.038-35.172c1.131 0 2.262.48 3.183 1.458.768.834 1.365 2.052 1.665 3.786.321 1.854.501 5.928.501 12.333-.045 6.588-.222 10.959-.516 13.239-.267 2.067-.927 3.471-1.821 4.395l-.027.027c-.816.876-1.869 1.329-2.985 1.329a4.11 4.11 0 0 1-3.051-1.326l-.03-.03c-.87-.9-1.53-2.244-1.83-4.128-.324-2.046-.504-6.51-.504-13.5 0-6.453.177-10.554.501-12.408.3-1.731.894-2.913 1.638-3.693l.018-.018c.912-.972 2.061-1.464 3.258-1.464zm13.002 35.115l-.027.051-.009.021zM172.72 401.767a2.1 2.1 0 0 1-.63-.093c-1.785-.561-2.976-1.92-2.976-3.888 0-1.755 1.02-3.03 2.478-3.759a2.1 2.1 0 0 1 .939-.222h59.916a2.1 2.1 0 0 1 .99.249c1.419.756 2.52 1.887 2.52 3.732 0 1.692-1.089 2.88-2.373 3.612a2.1 2.1 0 0 1-1.035.276l-29.91.093h-.009zm-.189 18.249a2.1 2.1 0 0 1-.939-.222c-1.458-.729-2.478-2.001-2.478-3.759 0-1.968 1.191-3.327 2.979-3.885a2.1 2.1 0 0 1 .627-.096h59.82a2.1 2.1 0 0 1 1.221.39c1.146.816 2.199 1.998 2.199 3.591 0 1.824-1.119 3.081-2.625 3.783a2.1 2.1 0 0 1-.888.198zm-62.268 36.027c-.993 0-1.95-.33-2.709-1.086-.63-.63-1.005-1.38-1.209-2.199a2.1 2.1 0 0 1-.063-.51c0-.903 2.958-8.673 8.601-23.598v-.009l8.295-21.729-.084-.228q-1.362-3.666-8.208-21.501l-.003-.009-8.601-23.601a3 3 0 0 1 .021-.297c.129-.906.51-1.668 1.158-2.316.735-.732 1.644-1.062 2.571-1.167a3 3 0 0 1 .231-.012c1.5 0 2.544.729 3.318 1.836a2.1 2.1 0 0 1 .21.378c.378.882 3.168 8.232 8.874 23.22l8.751 23.286c.237 1.179-2.889 9.129-8.658 24.117l-8.967 23.211a2.1 2.1 0 0 1-.21.378c-.774 1.107-1.815 1.836-3.318 1.836zM81.85 383.365l-.015.039.03-.087zm5.859-6.132q-.015 0-.033.006l.081-.024z" paint-order="stroke fill markers"/><path d="M49.876 432.526a2.1 2.1 0 0 1-2.1-2.1V426.1a2.1 2.1 0 0 1 2.1-2.1h5.736q1.245 0 2.16-.087l1.698-.102c0 0-.072.024.096-.06l.249-.126v-5.601c-13.317-2.331-20.397-11.088-20.973-25.704v-.039c-.12-5.709-1.419-7.485-2.688-7.65l.27.018c-2.259 0-3.417-1.695-3.417-3.699 0-1.056.114-2.766 1.539-3.477.579-.291 1.929-.438 3.387-.501l.09-.003h3.198c1.917 0 3.486.105 4.41.357 1.158.315 2.19 1.044 3.096 1.95 1.152 1.155 1.941 2.556 2.406 4.179.567 1.59.873 4.209.936 7.425q.09 4.665 1.17 9.351c.669 2.898 1.929 5.226 3.735 7.047q1.239 1.146 2.49 1.848l.315.165.015-1.989q.024-5.052.024-15.159v-19.038a4.8 4.8 0 0 1-1.242-.411c0 .012-.03.03-.198.066-.987.198-2.049.126-3.108-.099-.612-.132-1.461-.171-2.655-.06l-.198.012h-2.541a2.1 2.1 0 0 1-2.1-2.1v-4.326a2.1 2.1 0 0 1 2.1-2.1h1.131a3 3 0 0 1 .258.015c1.254.156 6.426.267 15.261.267s14.004-.111 15.258-.267a3 3 0 0 1 .261-.015h1.128a2.1 2.1 0 0 1 2.1 2.1v4.326a2.1 2.1 0 0 1-2.1 2.1h-2.538c-3.75 0-6.018.069-6.78.168a1.8 1.8 0 0 0-.531.159l-.09 19.206v.009q0 10.101.024 15.15l.012 1.932c.105-.054.156-.075.27-.138q1.485-.783 2.55-1.926c.696-.747 1.503-1.944 2.397-3.669.816-1.578 1.413-3.48 1.761-5.739.177-1.23.327-3.399.45-6.639.126-3.288.519-6.039 1.152-7.758 1.047-3.189 2.868-5.388 5.859-6.132.999-.279 2.592-.264 5.34-.264h4.14a2.1 2.1 0 0 1 1.365.507l.66.564a2.1 2.1 0 0 1 .732 1.593v2.352a2.1 2.1 0 0 1-.84 1.68c-.678.51-1.587.984-2.577.984l.3-.021c-.918.132-1.428.534-1.773 1.65-.501 1.611-.888 4.044-1.134 7.428-.258 3.525-.72 6.411-1.419 8.508l-.009.024c-3.039 8.781-9.585 14.046-19.26 15.768v2.43l.069 3.18c.183.03.657.111 1.614.21 1.179.114 3.036.174 5.715.174h2.541a2.1 2.1 0 0 1 2.1 2.1v4.329a2.1 2.1 0 0 1-2.1 2.1h-1.131a3 3 0 0 1-.258-.015c-1.254-.159-6.426-.27-15.261-.27s-14.004.111-15.258.27a3 3 0 0 1-.261.015zm1.257-49.071l-.048-.15.057.171zm-34.461 72.492c-1.773 0-3-1.128-3.624-2.589a2.1 2.1 0 0 1-.168-.828v-45.714l.093-45.717a2.1 2.1 0 0 1 .435-1.275c.801-1.041 1.941-2.04 3.45-2.04 1.827 0 3.084 1.116 3.786 2.622a2.1 2.1 0 0 1 .198.888v91.239a2.1 2.1 0 0 1-.276 1.041c-.714 1.245-1.788 2.376-3.519 2.376h-.186zm344.922 0c-1.773 0-3-1.128-3.624-2.589a2.1 2.1 0 0 1-.171-.828v-45.714l.096-45.717a2.1 2.1 0 0 1 .435-1.275c.801-1.041 1.938-2.04 3.45-2.04 1.827 0 3.084 1.116 3.786 2.622a2.1 2.1 0 0 1 .198.888v91.239a2.1 2.1 0 0 1-.279 1.041c-.711 1.245-1.785 2.376-3.516 2.376h-.186z" paint-order="stroke fill markers"/></g><g stroke-width="7.937"><path d="M396.49 369.442a9.9 9.9 0 0 0-2.148.24c-1.044.231-1.929.777-2.568 1.677a6.96 6.96 0 0 1-.72.861c-.645.651-1.08 1.674-1.305 2.58l-.492 1.65c-.225.6-.486 1.578-.744 2.727l-.633 2.631-.018.069-1.404 5.91h-3.372l-4.749.093c-.972 0-2.061.42-2.64 1.476-.414.594-.552 1.254-.714 1.902-.195.78-.345 1.503-.345 2.013 0 1.005.78 1.935 1.272 2.427a2.1 2.1 0 0 0 1.485.612h4.797l2.097.03c-.648 2.406-1.509 6.018-2.724 10.908l-3.291 13.167a2.1 2.1 0 0 0-.063.51v1.695c0 1.227.078 2.358.252 3.048l.039.138c.885 2.727 2.361 4.812 4.647 6.081a12.98 12.98 0 0 0 6.381 1.674c2.352 0 4.605-.642 6.774-1.872a19.5 19.5 0 0 0 5.37-4.425c1.371-1.632 2.511-3.204 3.396-4.704.858-1.452 1.506-2.796 1.884-3.996.195-.594.384-1.242.384-1.776 0-2.223-2.079-2.853-3.51-2.853h-.378l-.174.006c-.774.066-1.413.129-1.899.291-1.119.372-1.596 1.377-1.8 1.986l.042-.117c-1.164 2.913-2.691 5.31-4.542 7.218-1.794 1.851-3.417 2.562-4.89 2.562-.06 0-.438.108-.438-1.851 0-.183 1.164-5.652 3.609-15.681l2.988-12.036h8.421a2.1 2.1 0 0 0 1.485-.615c1.287-1.287 1.839-2.934 1.839-4.776 0-1.17-.729-1.977-1.275-2.52a2.1 2.1 0 0 0-1.482-.615h-4.8c-.906 0-1.374-.018-2.004-.027l.264-.972.006-.024c.698-2.474 1.332-4.979 1.902-7.515.567-2.523.897-3.993.897-4.884 0-1.113-.426-2.121-1.038-2.991-.933-1.335-2.43-1.842-3.954-1.926zm74 17.293a6.36 6.36 0 0 0-3.473 1.268c-1.012.74-1.908 1.5-2.688 2.28-.903.9-1.662 2.067-2.298 3.408l-1.44 3.174c-.428 1.006-.78 2.094-1.056 3.264l-.486 2.136c-.054.276-.09.411-.12.501a2.1 2.1 0 0 0-.108.666c0 1.062.729 1.878 1.179 2.331a2.1 2.1 0 0 0 1.485.615h1.317c.862 0 2.057-.036 2.844-.685a1.11 1.11 0 0 1-.078.075l.225-.195-.132.111-.002-.002c.938-.791 1.328-2.465 1.82-4.487a22.2 22.2 0 0 1 1.971-5.241c.714-1.332 1.254-1.524 1.629-1.524 0 0 .252.252.252 1.755 0 .504-.024.765-.051.9-.153.705-2.085 8.547-5.718 23.145l-5.511 21.792-.042.012a9 9 0 0 1-1.863.21h-1.833a2.1 2.1 0 0 0-1.236.402c-1.44 1.05-1.938 2.91-2.082 4.836l-.006.156c0 1.17.729 1.974 1.275 2.52a2.1 2.1 0 0 0 1.485.615l.753-.003.219-.012c1.056-.114 3.773-.172 8.151-.174 2.304 0 4.22.03 5.748.09l3.282.096h1.035l.21-.009c.765-.075 1.752-.234 2.496-.981.561-.558.915-1.572 1.116-2.388l.03-.12c.189-1.011.318-1.428.318-2.079 0-.915-.669-1.746-1.071-2.214a2.1 2.1 0 0 0-1.593-.735h-2.271l-1.89-.15 1.59-6.375 1.161-4.692a12 12 0 0 0 2.61 1.686l.168.069a13.2 13.2 0 0 0 4.368.684h.021c6.759-.072 12.693-3.33 17.769-9.408 5.061-6.06 7.638-12.738 7.638-20.064 0-4.638-1.273-8.646-3.93-12.024-2.784-3.534-6.534-5.22-11.244-5.22-3.798 0-7.587 1.692-11.328 4.728-1.998-3.135-5.316-4.71-9.678-4.728a6.36 6.36 0 0 0-.937-.017zm-35.27.11c-6.705.072-12.6 3.333-17.673 9.408-5.043 6.036-7.638 12.477-7.638 19.407 0 5.799 1.41 10.425 4.602 13.464 3.009 2.865 6.552 4.341 10.575 4.341v.003c3.957 0 7.713-1.599 11.265-4.542.723 1.05 1.782 1.986 3.012 2.79 1.851 1.206 4.059 1.752 6.51 1.752 1.068 0 2.025-.066 2.766-.252a3 3 0 0 0 .306-.099 11.4 11.4 0 0 0 3.678-2.43c1.296-1.293 2.439-3.117 3.438-5.319.963-2.121 1.659-3.978 2.013-5.46.318-1.338.528-2.358.528-3.027 0-2.364-2.292-2.946-3.888-2.946h-.375c-.483 0-1.094.004-1.662.221-1.379.485-1.86 2.103-2.232 3.347l-.021.069c-1.197 4.551-2.247 6.963-3.183 7.941a3 3 0 0 1-.6.33c-.18-.042-.318-.09-.318-.09s-.129-.351-.135-1.641c.045-.699 1.2-6.021 3.51-15.183 2.319-9.222 3.54-14.247 3.54-15.561 0-1.482-.6-2.622-1.728-3.522-1.016-.81-2.174-1.214-3.474-1.212a6.45 6.45 0 0 0-4.461 1.692c-2.391-2.262-5.118-3.48-8.331-3.48h-.024zm56.46 7.587c2.445 0 3.639 1.158 3.639 4.86v.519c-.06 2.103-.609 5.298-1.728 9.897-1.113 4.578-2.193 7.767-3.204 9.672l-.009.021a15 15 0 0 1-3.795 4.794c-1.434 1.179-2.844 1.686-4.122 1.686-1.914 0-3.594-1.329-4.815-5.241l2.34-9.645a204 204 0 0 0 1.311-4.875l1.047-4.191a16.14 16.14 0 0 0 .165-.822 6 6 0 0 0 .93-1.242 4.2 4.2 0 0 1 .696-.876l1.41-1.41a15 15 0 0 1 1.404-1.236 12.14 12.14 0 0 1 1.599-1.038 7.5 7.5 0 0 1 1.614-.663c.516-.14 1.022-.21 1.518-.21zm-56.763.003c1.224.051 2.13.468 2.847 1.221 1.008 1.065 1.494 1.875 1.683 2.475a12 12 0 0 1 .354 1.344c-.048.219-.846 3.783-2.367 10.044l-2.376 9.621-.078.18c-.291.747-1.305 1.962-3.579 3.99-2.019 1.8-3.885 2.553-5.61 2.568a3.99 3.99 0 0 1-2.652-1.116c-.531-.504-1.017-1.704-1.029-4.209a8.18 8.18 0 0 0 .09-1.227v-.873a72.9 72.9 0 0 1 3.726-14.862l.006-.012c1.038-2.886 2.454-5.142 4.188-6.822 1.68-1.632 3.312-2.31 4.797-2.322z" fill="#2b501d" paint-order="stroke fill markers"/><path d="M686.575 386.752c-6.957 0-13.275 3.027-18.99 8.808-5.739 5.805-8.694 12.456-8.694 19.911v.03c.069 5.121 1.704 9.456 5.001 12.9 3.33 3.471 7.692 5.16 12.9 5.16l-.099-.003a24 24 0 0 0 1.074.027v.003a21.9 21.9 0 0 0 7.23-1.176c2.424-.828 4.509-1.638 6.219-2.43a17.7 17.7 0 0 0 4.797-3.204l2.769-2.673c.738-.738 1.722-1.806 1.422-3.306-.159-.789-.897-1.773-1.515-2.391-.633-.633-1.473-1.461-2.709-1.461-1.209 0-2.091.969-2.691 1.635l-.03.039c-4.146 4.824-9.45 7.26-15.81 7.26h-.375c-1.674 0-3.009-.597-3.909-1.575l-.156-.153c-1.038-.921-1.728-2.466-1.734-4.887.06-2.085.669-5.466 1.911-10.434 1.188-4.752 3.045-8.265 5.466-10.686 1.254-1.254 2.376-2.037 3.387-2.472l.141-.066a9.45 9.45 0 0 1 4.395-1.08 12 12 0 0 1 1.254.069 12.9 12.9 0 0 0-.648.765c-1.029 1.308-1.485 2.808-1.485 4.497s.453 3.219 1.722 4.374c1.191 1.083 2.628 1.485 4.236 1.485h.072c2.343-.081 4.374-.951 5.964-2.625 1.584-1.668 2.364-3.723 2.364-6.057v-.054c-.081-3.147-1.401-5.646-3.942-7.551-2.478-1.857-5.727-2.679-9.537-2.679zm30.936 11.448c-.537 0-1.53 0-2.28.804-.434.396-.958.805-1.572 1.227-.531.366-1.452.768-3.183 1.332a19.5 19.5 0 0 1-5.199.891h-1.2a2.1 2.1 0 0 0-2.1 2.1v3.06a2.1 2.1 0 0 0 2.1 2.1h1.263l.132-.003c1.488-.092 2.862-.258 4.122-.498.372-.072.693-.147 1.026-.225v30.294a3.72 3.72 0 0 1-.525.096c-.297.033-.753.054-1.431.054h-4.254a2.1 2.1 0 0 0-2.1 2.1v3.06a2.1 2.1 0 0 0 2.1 2.1l.795-.003a3 3 0 0 0 .3-.021c.615-.09 4.119-.18 10.143-.18 6.111 0 9.663.09 10.275.18a3 3 0 0 0 .297.021h.732a2.1 2.1 0 0 0 2.1-2.1v-3.06a2.1 2.1 0 0 0-2.1-2.1h-1.731c-1.89 0-3.141-.039-3.9-.12-.396-.042-.36-.042-.519-.066l-.063-18.66v-19.884a2.1 2.1 0 0 0-.84-1.68c-.693-.519-1.467-.819-2.388-.819zm-117.474 42.039c-1.77 0-2.997-1.128-3.621-2.589a2.1 2.1 0 0 1-.171-.828v-25.929H570.22a2.1 2.1 0 0 1-.939-.222c-1.458-.729-2.478-2.001-2.478-3.759s1.02-3.03 2.478-3.759a2.1 2.1 0 0 1 .939-.222h26.025v-12.024l.093-14.109a2.1 2.1 0 0 1 .435-1.266c.804-1.041 1.941-2.043 3.453-2.043 1.824 0 3.081 1.119 3.783 2.622a2.1 2.1 0 0 1 .198.888v25.932h25.929a2.1 2.1 0 0 1 .99.246c1.422.759 2.52 1.89 2.52 3.735s-1.098 2.976-2.52 3.732a2.1 2.1 0 0 1-.99.249h-25.929v25.929a2.1 2.1 0 0 1-.276 1.044c-.711 1.245-1.788 2.373-3.516 2.373h-.189zm-86.91 15.804c-.996 0-1.95-.33-2.709-1.086-.63-.63-1.005-1.38-1.212-2.199a2.1 2.1 0 0 1-.06-.51c0-.903 2.955-8.673 8.601-23.598v-.009a3309 3309 0 0 0 8.295-21.729l-.084-.228q-1.362-3.666-8.208-21.501l-.003-.009-8.604-23.601a3 3 0 0 1 .021-.297c.132-.906.51-1.668 1.161-2.316.732-.735 1.644-1.065 2.568-1.167a3 3 0 0 1 .231-.012c1.503 0 2.544.729 3.321 1.836a2.1 2.1 0 0 1 .21.378c.378.882 3.168 8.232 8.874 23.22l8.751 23.283c.234 1.179-2.892 9.132-8.661 24.12l-8.964 23.211a2.1 2.1 0 0 1-.21.375c-.777 1.11-1.818 1.839-3.321 1.839zm240.984-.096c-1.776 0-3-1.128-3.624-2.589a2.1 2.1 0 0 1-.171-.828v-45.714l.096-45.717a2.1 2.1 0 0 1 .435-1.275c.801-1.041 1.938-2.04 3.45-2.04 1.827 0 3.084 1.116 3.786 2.622a2.1 2.1 0 0 1 .195.888v91.239a2.1 2.1 0 0 1-.276 1.041c-.711 1.245-1.785 2.376-3.516 2.376h-.189z" paint-order="stroke fill markers" fill="#1a1a1a"/><path d="M891.137 363.038c-.546-.003-1.046.092-1.294.137-.579.105-1.404.192-2.556.252a234 234 0 0 0-3.228.189l-7.299.669c-1.455.486-2.055 2.127-2.4 3.432l-.042.189c-.126.765-.216 1.185-.216 1.665a3.6 3.6 0 0 0 .315 1.5c.486.972 1.539 1.305 2.031 1.404.375.075.801.135 1.167.135h1.221a2.1 2.1 0 0 0 .537-.079c-.036.017-.034.038.107.058l1.143.114.132.021a1941 1941 0 0 1-5.649 23.325l-6.114 24.27-.024.102c-.096.471-.135 1.23-.135 2.01v.042c.072 3.723 1.242 6.75 3.891 8.631 2.286 1.617 4.752 2.445 7.47 2.457v-.003a8.01 8.01 0 0 0 5.781-2.136 16.8 16.8 0 0 0 3.33-3.99 24.9 24.9 0 0 0 2.064-4.83l1.095-3.804.294-1.572a3 3 0 0 0 .03-.345c0-.558-.138-1.476-.804-2.142a2.7 2.7 0 0 0-1.956-.804h-1.503c-.489 0-1.108.005-1.683.229-1.362.494-1.842 2.101-2.211 3.338l-.027.099c-1.581 6.384-3.306 8.28-3.888 8.28-.066 0-.252.204-.252-1.005v-.426a6.57 6.57 0 0 0 .096-1.08v-.54c.042-.225 2.439-10.182 6.99-28.197l6.93-28.734c0-1.869-1.44-2.679-2.79-2.82a3.72 3.72 0 0 0-.554-.041zm-97.144.011a2.1 2.1 0 0 0-.939.222s.477-.165.153-.135l-.114.012a468 468 0 0 1-6.114.471l-6.627.465c-2.058 0-2.874 1.911-3.252 3.351a3 3 0 0 0-.054.288c-.126 1.074-.204 1.56-.204 2.034 0 1.176.762 1.818 1.179 2.238a2.1 2.1 0 0 0 1.485.615h1.89a36.67 36.67 0 0 1 2.166.192l-6.75 27.012-6.93 29.106a3 3 0 0 0 .012.234c.138 1.245.858 2.25 1.719 3.021 1.032.933 2.277 1.386 3.66 1.386v.003c2.706 0 4.86-1.299 6.03-3.729l.048-.105c.525-1.26 1.569-5.502 3.579-13.653v-.009l3.132-12.435.498-.921c3.561-5.706 7.47-8.184 11.733-8.184h.468c1.29 0 2.037.564 2.04 3.426-.06 2.964-1.125 7.38-3.36 13.716-2.259 6.402-3.507 10.401-3.507 11.796 0 2.433.843 4.623 2.418 6.651 1.842 2.367 4.656 3.351 8.055 3.351h.471c3.714 0 6.719-1.658 9.204-4.768 2.438-2.665 4.165-6 5.238-9.95.246-.867.45-1.554.45-1.962 0-2.415-2.421-2.85-3.981-2.85-.87 0-1.902.024-2.67.54-.794.524-1.216 1.652-1.427 2.411l-.002.004c-.887 3.074-2.002 5.354-3.279 6.954-1.128 1.407-2.157 1.941-3.027 2.016l-.003-.15c.003-.699 1.08-4.656 3.45-11.328 2.4-6.759 3.696-12.105 3.696-15.564v-.039c-.072-3.753-1.332-6.861-3.969-9.015-2.529-2.073-5.754-3.015-9.513-3.015-3.357 0-6.513.909-9.498 2.631l2.223-8.664c2.256-8.781 3.45-13.464 3.45-14.724 0-2.082-1.623-2.946-3.228-2.946zm149.46 0a2.1 2.1 0 0 0-.939.222s.477-.165.156-.135l-.114.012a468 468 0 0 1-6.117.468l-6.624.468c-2.061 0-2.874 1.911-3.252 3.351a3 3 0 0 0-.057.288c-.126 1.074-.201 1.557-.201 2.034 0 1.176.759 1.818 1.179 2.238a2.1 2.1 0 0 0 1.485.615h1.89a39 39 0 0 1 2.16.192c-.372 1.338-1.044 4.062-2.421 9.618l-1.638 6.618c-1.959-1.527-4.383-2.286-7.233-2.286-2.763 0-5.754.798-8.889 2.268-3.309 1.548-6.495 4.269-9.57 7.995l-.036.048c-1.894 2.44-3.496 5.306-4.806 8.598-1.344 3.357-2.034 6.687-2.034 9.999 0 5.799 1.41 10.425 4.605 13.464 3.006 2.865 6.549 4.341 10.572 4.341l-.003.003c3.957 0 7.716-1.599 11.265-4.542.726 1.05 1.782 1.986 3.012 2.79 1.851 1.206 4.059 1.752 6.51 1.752 1.068 0 2.025-.066 2.766-.252a3 3 0 0 0 .291-.096 12.6 12.6 0 0 0 3.165-1.821c.942-.771 2.052-2.388 3.144-4.377 1.17-2.133 2.169-4.857 3.009-8.085.198-.726.354-1.527.354-2.052 0-2.22-2.082-2.85-3.51-2.85h-.753c-.489 0-1.107.004-1.681.229-1.363.493-1.843 2.101-2.213 3.338l-.018.069c-1.197 4.551-2.247 6.962-3.183 7.938a2.4 2.4 0 0 1-.666.355c-.171-.063-.39-.363-.39-1.833a3 3 0 0 0-.015-.231c-.039-.375 0-.513 0-.516.126-.375 2.526-9.972 7.101-28.473l6.93-28.911c0-2.076-1.776-2.85-3.231-2.85zm-93.495 23.796c-5.529 0-10.833 2.139-15.894 6.201l-.024.018a32.4 32.4 0 0 0-8.238 10.155c-2.04 3.938-3.06 8.115-3.06 12.531 0 4.854 1.635 9.063 4.896 12.54 3.375 3.591 7.638 5.271 12.915 5.271 7.116 0 13.536-2.979 19.26-8.703 5.739-5.742 8.706-12.297 8.706-19.641 0-2.661-.411-5.121-1.272-7.341-.795-2.058-1.71-3.81-2.745-5.142-1.071-1.377-2.43-2.496-4.038-3.375-1.431-.78-2.682-1.362-3.681-1.668-.862-.266-1.726-.499-2.592-.699l-.21-.036c-.672-.084-2.004-.111-4.023-.111zm.471 7.587c1.848 0 3.312.705 4.371 2.025.738.948 1.242 2.523 1.242 4.998 0 2.226-.399 4.902-1.248 8.118-.87 3.297-1.545 5.454-2.061 6.663-1.323 2.988-3.075 5.34-5.235 7.11-2.108 1.73-4.285 2.534-6.474 2.535-1.545 0-2.94-.513-4.194-1.572-.99-.84-1.695-2.409-1.701-5.139.063-2.166.609-5.346 1.728-9.876 1.071-4.35 2.676-7.701 4.74-10.155l.009-.012c2.649-3.204 5.676-4.695 8.823-4.695zm71.016 0c1.851 0 3.588 1.383 4.869 5.412l-4.833 19.425-.477.657c-3.354 4.23-6.267 5.934-8.736 5.952-1.035-.051-1.905-.42-2.643-1.116-.534-.504-1.02-1.704-1.032-4.209a8.18 8.18 0 0 0 .09-1.227v-.873a72.9 72.9 0 0 1 3.729-14.862l.003-.012c1.038-2.886 2.454-5.142 4.188-6.822 1.698-1.647 3.342-2.325 4.842-2.325zm23.292 24.391l-.006.023z" fill="#2b501d" paint-order="stroke fill markers"/><path d="M992.161 450.781c-.042 0-.09-.021-.132-.027-1.101-.099-1.875-.852-2.466-1.44-.63-.636-1.461-1.473-1.461-2.709 0-1.215.858-2.13 1.59-2.925l2.238-2.691c.711-.912 1.428-2.259 2.139-4.152q.729-1.95 1.122-4.374l-.411.036a3 3 0 0 1-.345.03c-2.19 0-4.116-.708-5.622-2.217l-1.695-1.692a2.1 2.1 0 0 1-.615-1.485v-2.352c0-2.07.672-3.903 2.037-5.439 1.491-1.677 3.336-2.4 5.613-2.4 2.46 0 4.572 1.125 6.279 3.066 1.806 2.052 2.622 5.502 2.688 9.63v.036q0 3.567-.921 6.948a31.5 31.5 0 0 1-2.124 5.748 22.5 22.5 0 0 1-2.7 4.251l-2.394 2.691c-.594.591-1.569 1.572-2.82 1.47zm-40.428 5.262c-.996 0-1.95-.33-2.709-1.086-.63-.63-1.005-1.38-1.212-2.199a2.1 2.1 0 0 1-.06-.51c0-.903 2.955-8.673 8.601-23.598v-.009a3306 3306 0 0 0 8.295-21.729l-.084-.228a3306 3306 0 0 0-8.208-21.501l-.003-.009-8.604-23.601a3 3 0 0 1 .021-.297c.132-.906.51-1.668 1.161-2.316.732-.732 1.644-1.062 2.568-1.167a3 3 0 0 1 .234-.012c1.5 0 2.541.729 3.318 1.836a2.1 2.1 0 0 1 .21.378c.378.882 3.168 8.232 8.874 23.22l8.751 23.286c.234 1.176-2.892 9.129-8.661 24.117l-8.964 23.211a2.1 2.1 0 0 1-.21.378c-.777 1.107-1.818 1.836-3.318 1.836z" paint-order="stroke fill markers" fill="#1a1a1a"/></g></svg>
