<?xml version="1.0" encoding="UTF-8" standalone="no"?>
<svg
   contentStyleType="text/css"
   data-diagram-type="ACTIVITY"
   height="1118px"
   preserveAspectRatio="none"
   style="width:644px;height:1118px;"
   version="1.1"
   viewBox="0 0 644 1118"
   width="644px"
   zoomAndPan="magnify"
   id="svg97"
   sodipodi:docname="prediction.inkscape.svg"
   inkscape:version="1.4.2 (f4327f4, 2025-05-13)"
   xmlns:inkscape="http://www.inkscape.org/namespaces/inkscape"
   xmlns:sodipodi="http://sodipodi.sourceforge.net/DTD/sodipodi-0.dtd"
   xmlns="http://www.w3.org/2000/svg"
   xmlns:svg="http://www.w3.org/2000/svg">
  <sodipodi:namedview
     id="namedview97"
     pagecolor="#ffffff"
     bordercolor="#000000"
     borderopacity="0.25"
     inkscape:showpageshadow="2"
     inkscape:pageopacity="0.0"
     inkscape:pagecheckerboard="0"
     inkscape:deskcolor="#d1d1d1"
     inkscape:zoom="1.9588551"
     inkscape:cx="221.30274"
     inkscape:cy="527.60411"
     inkscape:window-width="2560"
     inkscape:window-height="1334"
     inkscape:window-x="-11"
     inkscape:window-y="-11"
     inkscape:window-maximized="1"
     inkscape:current-layer="svg97" />
  <defs
     id="defs1" />
  <rect
     fill="#f1f1f1"
     height="43.840099"
     rx="3.5"
     ry="3.5"
     style="stroke:#181818;stroke-width:1.5"
     width="265.6019"
     x="184.29739"
     y="50"
     id="rect1" />
  <text
     fill="#000000"
     font-family="'JetBrains Mono NL'"
     font-size="12px"
     lengthAdjust="spacing"
     textLength="100.8008"
     x="198.29739"
     y="76.240097"
     id="text1">Tap-hold key (</text>
  <text
     fill="#000000"
     font-family="'JetBrains Mono NL'"
     font-size="12px"
     font-weight="bold"
     lengthAdjust="spacing"
     textLength="21.600201"
     x="299.09821"
     y="76.240097"
     id="text2">PTH</text>
  <text
     fill="#000000"
     font-family="'JetBrains Mono NL'"
     font-size="12px"
     lengthAdjust="spacing"
     textLength="108.0009"
     x="327.89841"
     y="76.240097"
     id="text3">key) is pressed</text>
  <rect
     fill="#42c6f4"
     height="43.840099"
     rx="3.5"
     ry="3.5"
     style="stroke:#181818;stroke-width:1.5"
     width="56.800201"
     x="447.297"
     y="198.8799"
     id="rect3" />
  <text
     fill="#000000"
     font-family="'JetBrains Mono NL'"
     font-size="12px"
     lengthAdjust="spacing"
     textLength="28.8002"
     x="461.297"
     y="221.12"
     id="text4"
     transform="translate(0,4)">Hold</text>
  <rect
     fill="#f7a83a"
     height="43.840099"
     rx="3.5"
     ry="3.5"
     style="stroke:#181818;stroke-width:1.5"
     width="49.600201"
     x="450.89709"
     y="292.72"
     id="rect4" />
  <text
     fill="#000000"
     font-family="'JetBrains Mono NL'"
     font-size="12px"
     lengthAdjust="spacing"
     textLength="21.600201"
     x="464.89709"
     y="308.96011"
     id="text5"
     transform="translate(0,10)">Tap</text>
  <polygon
     fill="#f1f1f1"
     points="142.0994,194.8799 130.0994,176.36 142.0994,157.8401 374.4975,157.8401 386.4975,176.36 374.4975,194.8799 "
     style="stroke:#181818;stroke-width:1.5"
     id="polygon5"
     transform="translate(0,4)" />
  <text
     fill="#000000"
     font-family="'JetBrains Mono NL'"
     font-size="11px"
     lengthAdjust="spacing"
     textLength="211.1982"
     x="146.0994"
     y="173.06"
     id="text6"
     transform="translate(0,4)">PTH key is held down long enough</text>
  <text
     fill="#000000"
     font-family="'JetBrains Mono NL'"
     font-size="11px"
     lengthAdjust="spacing"
     textLength="224.3981"
     x="146.0994"
     y="187.5799"
     id="text7"
     transform="translate(0,4)">to trigger timeout-based decision?</text>
  <text
     fill="#000000"
     font-family="'JetBrains Mono NL'"
     font-size="11px"
     lengthAdjust="spacing"
     textLength="19.799801"
     x="390.4975"
     y="169.06"
     id="text8"
     transform="translate(0,4)">yes</text>
  <polygon
     fill="#f1f1f1"
     points="188.299,282.72 176.299,270.72 188.299,258.72 328.2979,258.72 340.2979,270.72 328.2979,282.72 "
     style="stroke:#181818;stroke-width:1.5"
     id="polygon8"
     transform="translate(0,4)" />
  <text
     fill="#000000"
     font-family="'JetBrains Mono NL'"
     font-size="11px"
     lengthAdjust="spacing"
     textLength="131.9989"
     x="192.299"
     y="274.67999"
     id="text9"
     transform="translate(0,4)">PTH key is released?</text>
  <text
     fill="#000000"
     font-family="'JetBrains Mono NL'"
     font-size="11px"
     lengthAdjust="spacing"
     textLength="19.799801"
     x="344.29791"
     y="263.42001"
     id="text10"
     transform="translate(0,4)">yes</text>
  <polygon
     fill="#808080"
     points="317.0983,137.8401 305.0983,125.8401 317.0983,113.8401 329.0983,125.8401 "
     style="stroke:#181818;stroke-width:1.5"
     id="polygon11" />
  <polygon
     fill="#808080"
     points="405.6977,411.1 393.6977,423.1 240.4989,423.1 228.4989,411.1 240.4989,399.1 393.6977,399.1 "
     style="stroke:#181818;stroke-width:1.5"
     id="polygon12" />
  <text
     fill="#000000"
     font-family="'JetBrains Mono NL'"
     font-size="11px"
     lengthAdjust="spacing"
     textLength="19.799801"
     x="325.0983"
     y="438.31989"
     id="text12">yes</text>
  <text
     fill="#ffffff"
     font-family="'JetBrains Mono NL'"
     font-size="11px"
     font-weight="bold"
     lengthAdjust="spacing"
     textLength="145.19881"
     x="244.4989"
     y="415.06"
     id="text13">Second key is pressed?</text>
  <text
     fill="#000000"
     font-family="'JetBrains Mono NL'"
     font-size="11px"
     lengthAdjust="spacing"
     textLength="13.1999"
     x="409.69769"
     y="403.80011"
     id="text14">no</text>
  <rect
     fill="#f7a83a"
     height="43.840099"
     rx="3.5"
     ry="3.5"
     style="stroke:#181818;stroke-width:1.5"
     width="49.600201"
     x="450.89709"
     y="539.13977"
     id="rect14" />
  <text
     fill="#000000"
     font-family="'JetBrains Mono NL'"
     font-size="12px"
     lengthAdjust="spacing"
     textLength="21.600201"
     x="464.89709"
     y="565.37988"
     id="text15">Tap</text>
  <rect
     fill="#f7a83a"
     height="43.840099"
     rx="3.5"
     ry="3.5"
     style="stroke:#181818;stroke-width:1.5"
     width="49.600201"
     x="450.89709"
     y="632.97992"
     id="rect15" />
  <text
     fill="#000000"
     font-family="'JetBrains Mono NL'"
     font-size="12px"
     lengthAdjust="spacing"
     textLength="21.600201"
     x="464.89709"
     y="653.21997"
     id="text16"
     transform="translate(0,6)">Tap</text>
  <rect
     fill="#42c6f4"
     height="43.840099"
     rx="3.5"
     ry="3.5"
     style="stroke:#181818;stroke-width:1.5"
     width="56.800201"
     x="447.297"
     y="727.8598"
     id="rect16" />
  <text
     fill="#000000"
     font-family="'JetBrains Mono NL'"
     font-size="12px"
     lengthAdjust="spacing"
     textLength="28.8002"
     x="461.297"
     y="754.09991"
     id="text17">Hold</text>
  <polygon
     fill="#f1f1f1"
     points="385.5978,827.6999 397.5978,815.6999 557.3965,815.6999 569.3965,827.6999 557.3965,839.6999 397.5978,839.6999 "
     style="stroke:#181818;stroke-width:1.5"
     id="polygon17"
     transform="translate(0,6)" />
  <text
     fill="#0d0d0d"
     font-family="'JetBrains Mono NL'"
     font-size="11px"
     lengthAdjust="spacing"
     textLength="52.799599"
     x="401.59781"
     y="831.65991"
     id="text18"
     transform="translate(0,6)">Function</text>
  <text
     fill="#0d0d0d"
     font-family="'JetBrains Mono NL'"
     font-size="11px"
     font-weight="bold"
     lengthAdjust="spacing"
     textLength="52.799599"
     x="460.99731"
     y="831.65991"
     id="text19"
     transform="translate(0,6)">predicts</text>
  <text
     fill="#0d0d0d"
     font-family="'JetBrains Mono NL'"
     font-size="11px"
     lengthAdjust="spacing"
     textLength="32.999699"
     x="520.39679"
     y="831.65991"
     id="text20"
     transform="translate(0,6)">Hold?</text>
  <text
     fill="#000000"
     font-family="'JetBrains Mono NL'"
     font-size="11px"
     lengthAdjust="spacing"
     textLength="19.799801"
     x="361.798"
     y="820.40002"
     id="text21"
     transform="translate(0,6)">yes</text>
  <text
     fill="#000000"
     font-family="'JetBrains Mono NL'"
     font-size="11px"
     lengthAdjust="spacing"
     textLength="13.1999"
     x="573.39648"
     y="820.40002"
     id="text22"
     transform="translate(0,6)">no</text>
  <rect
     fill="#42c6f4"
     height="43.840099"
     rx="3.5"
     ry="3.5"
     style="stroke:#181818;stroke-width:1.5"
     width="56.800201"
     x="347.19769"
     y="855.69989"
     id="rect22" />
  <text
     fill="#000000"
     font-family="'JetBrains Mono NL'"
     font-size="12px"
     lengthAdjust="spacing"
     textLength="28.8002"
     x="361.19769"
     y="875.94"
     id="text23"
     transform="translate(0,6)">Hold</text>
  <rect
     fill="#f7a83a"
     height="43.840099"
     rx="3.5"
     ry="3.5"
     style="stroke:#181818;stroke-width:1.5"
     width="49.600201"
     x="554.5965"
     y="855.69989"
     id="rect23" />
  <text
     fill="#000000"
     font-family="'JetBrains Mono NL'"
     font-size="12px"
     lengthAdjust="spacing"
     textLength="21.600201"
     x="568.5965"
     y="875.94"
     id="text24"
     transform="translate(0,6)">Tap</text>
  <polygon
     fill="#f1f1f1"
     points="276.3981,520.6199 264.3981,539.1398 32,539.1398 20,520.6199 32,502.1 264.3981,502.1 "
     style="stroke:#181818;stroke-width:1.5"
     id="polygon24" />
  <text
     fill="#000000"
     font-family="'JetBrains Mono NL'"
     font-size="11px"
     lengthAdjust="spacing"
     textLength="224.3981"
     x="36"
     y="517.31989"
     id="text25">Second key is pressed on same-side</text>
  <text
     fill="#000000"
     font-family="'JetBrains Mono NL'"
     font-size="11px"
     lengthAdjust="spacing"
     textLength="204.5983"
     x="36"
     y="531.83978"
     id="text26">as the PTH and is not tap-hold?</text>
  <text
     fill="#000000"
     font-family="'JetBrains Mono NL'"
     font-size="11px"
     lengthAdjust="spacing"
     textLength="19.799801"
     x="280.3981"
     y="513.31989"
     id="text27">yes</text>
  <polygon
     fill="#f1f1f1"
     points="273.0982,614.9799 261.0982,626.9799 35.3,626.9799 23.3,614.9799 35.3,602.9799 261.0982,602.9799 "
     style="stroke:#181818;stroke-width:1.5"
     id="polygon27" />
  <text
     fill="#000000"
     font-family="'JetBrains Mono NL'"
     font-size="11px"
     lengthAdjust="spacing"
     textLength="217.7982"
     x="39.299999"
     y="618.93988"
     id="text28">Same-side second key is released?</text>
  <text
     fill="#000000"
     font-family="'JetBrains Mono NL'"
     font-size="11px"
     lengthAdjust="spacing"
     textLength="19.799801"
     x="277.09821"
     y="607.67987"
     id="text29">yes</text>
  <polygon
     fill="#f1f1f1"
     points="266.4982,709.3399 254.4982,727.8598 41.8999,727.8598 29.8999,709.3399 41.8999,690.82 254.4982,690.82 "
     style="stroke:#181818;stroke-width:1.5"
     id="polygon29" />
  <text
     fill="#000000"
     font-family="'JetBrains Mono NL'"
     font-size="11px"
     lengthAdjust="spacing"
     textLength="197.9984"
     x="45.899899"
     y="706.03998"
     id="text30">Second key is held down longer</text>
  <text
     fill="#000000"
     font-family="'JetBrains Mono NL'"
     font-size="11px"
     lengthAdjust="spacing"
     textLength="26.399799"
     x="45.899899"
     y="720.55981"
     id="text31">than</text>
  <text
     fill="#000000"
     font-family="'JetBrains Mono NL'"
     font-size="11px"
     font-weight="bold"
     lengthAdjust="spacing"
     textLength="59.399502"
     x="78.899597"
     y="720.55981"
     id="text32">predicted</text>
  <text
     fill="#000000"
     font-family="'JetBrains Mono NL'"
     font-size="11px"
     lengthAdjust="spacing"
     textLength="105.5991"
     x="144.89909"
     y="720.55981"
     id="text33">minimum overlap?</text>
  <text
     fill="#000000"
     font-family="'JetBrains Mono NL'"
     font-size="11px"
     lengthAdjust="spacing"
     textLength="19.799801"
     x="270.4982"
     y="702.03998"
     id="text34">yes</text>
  <polygon
     fill="#f1f1f1"
     points="220.2986,803.6999 208.2986,815.6999 88.0995,815.6999 76.0995,803.6999 88.0995,791.6999 208.2986,791.6999 "
     style="stroke:#181818;stroke-width:1.5"
     id="polygon34" />
  <text
     fill="#000000"
     font-family="'JetBrains Mono NL'"
     font-size="11px"
     lengthAdjust="spacing"
     textLength="112.1991"
     x="92.099503"
     y="807.65991"
     id="text35">Third is pressed?</text>
  <text
     fill="#000000"
     font-family="'JetBrains Mono NL'"
     font-size="11px"
     lengthAdjust="spacing"
     textLength="19.799801"
     x="224.2986"
     y="796.40002"
     id="text36">yes</text>
  <polygon
     fill="#808080"
     points="317.0983,482.1 305.0983,470.1 317.0983,458.1 329.0983,470.1 "
     style="stroke:#181818;stroke-width:1.5"
     id="polygon37" />
  <polygon
     fill="#808080"
     points="387.0978,981.54 247.0989,981.54 235.0989,969.54 247.0989,957.54 387.0978,957.54 399.0978,969.54 "
     style="stroke:#181818;stroke-width:1.5"
     id="polygon38"
     transform="translate(0,-18)" />
  <text
     fill="#000000"
     font-family="'JetBrains Mono NL'"
     font-size="11px"
     lengthAdjust="spacing"
     textLength="19.799801"
     x="325.0983"
     y="996.76001"
     id="text38"
     transform="translate(0,-18)">yes</text>
  <text
     fill="#ffffff"
     font-family="'JetBrains Mono NL'"
     font-size="11px"
     font-weight="bold"
     lengthAdjust="spacing"
     textLength="131.9989"
     x="251.09891"
     y="973.5"
     id="text39"
     transform="translate(0,-18)">PTH key is released?</text>
  <text
     fill="#000000"
     font-family="'JetBrains Mono NL'"
     font-size="11px"
     lengthAdjust="spacing"
     textLength="13.1999"
     x="403.09781"
     y="962.24011"
     id="text40"
     transform="translate(0,-18)">no</text>
  <polygon
     fill="#f1f1f1"
     points="413.4975,1053.5798 220.6991,1053.5798 208.6991,1035.0599 220.6991,1016.54 413.4975,1016.54 425.4975,1035.0599 "
     style="stroke:#181818;stroke-width:1.5"
     id="polygon40"
     transform="translate(0,-18)" />
  <text
     fill="#0d0d0d"
     font-family="'JetBrains Mono NL'"
     font-size="11px"
     lengthAdjust="spacing"
     textLength="184.79849"
     x="224.6991"
     y="1031.76"
     id="text41"
     transform="translate(0,-18)">Second key is opposite-side,</text>
  <text
     fill="#0d0d0d"
     font-family="'JetBrains Mono NL'"
     font-size="11px"
     lengthAdjust="spacing"
     textLength="79.199303"
     x="224.6991"
     y="1046.2798"
     id="text42"
     transform="translate(0,-18)">and function</text>
  <text
     fill="#0d0d0d"
     font-family="'JetBrains Mono NL'"
     font-size="11px"
     font-weight="bold"
     lengthAdjust="spacing"
     textLength="52.799599"
     x="310.49841"
     y="1046.2798"
     id="text43"
     transform="translate(0,-18)">predicts</text>
  <text
     fill="#0d0d0d"
     font-family="'JetBrains Mono NL'"
     font-size="11px"
     lengthAdjust="spacing"
     textLength="32.999699"
     x="369.89789"
     y="1046.2798"
     id="text44"
     transform="translate(0,-18)">Hold?</text>
  <text
     fill="#000000"
     font-family="'JetBrains Mono NL'"
     font-size="11px"
     lengthAdjust="spacing"
     textLength="19.799801"
     x="184.89931"
     y="1027.76"
     id="text45"
     transform="translate(0,-18)">yes</text>
  <text
     fill="#000000"
     font-family="'JetBrains Mono NL'"
     font-size="11px"
     lengthAdjust="spacing"
     textLength="13.1999"
     x="429.4975"
     y="1027.76"
     id="text46"
     transform="translate(0,-18)">no</text>
  <rect
     fill="#42c6f4"
     height="43.840099"
     rx="3.5"
     ry="3.5"
     style="stroke:#181818;stroke-width:1.5"
     width="56.800201"
     x="170.299"
     y="1045.5798"
     id="rect46" />
  <text
     fill="#000000"
     font-family="'JetBrains Mono NL'"
     font-size="12px"
     lengthAdjust="spacing"
     textLength="28.8002"
     x="184.299"
     y="1089.8199"
     id="text47"
     transform="translate(0,-18)">Hold</text>
  <rect
     fill="#f7a83a"
     height="43.840099"
     rx="3.5"
     ry="3.5"
     style="stroke:#181818;stroke-width:1.5"
     width="49.600201"
     x="410.69751"
     y="1045.5798"
     id="rect47" />
  <text
     fill="#000000"
     font-family="'JetBrains Mono NL'"
     font-size="12px"
     lengthAdjust="spacing"
     textLength="21.600201"
     x="424.69751"
     y="1089.8199"
     id="text48"
     transform="translate(0,-18)">Tap</text>
  <line
     style="stroke:#454645;stroke-width:1.5"
     x1="386.4975"
     x2="475.6972"
     y1="180.36"
     y2="180.36"
     id="line49" />
  <line
     style="stroke:#454645;stroke-width:1.5"
     x1="475.6972"
     x2="475.6972"
     y1="179.61"
     y2="198.8799"
     id="line50" />
  <polygon
     fill="#454645"
     points="471.6972,184.8799 475.6972,194.8799 479.6972,184.8799 475.6972,188.8799 "
     style="stroke:#454645;stroke-width:1"
     id="polygon50"
     transform="translate(0,4)" />
  <line
     style="stroke:#454645;stroke-width:1.5"
     x1="340.29791"
     x2="475.6972"
     y1="274.72"
     y2="274.72"
     id="line51" />
  <line
     style="stroke:#454645;stroke-width:1.5"
     x1="475.6972"
     x2="475.6972"
     y1="273.97"
     y2="292.72"
     id="line52" />
  <polygon
     fill="#454645"
     points="475.6972,276.72 471.6972,272.72 475.6972,282.72 479.6972,272.72 "
     style="stroke:#454645;stroke-width:1"
     id="polygon52"
     transform="translate(0,10)" />
  <line
     style="stroke:#454645;stroke-width:1.5"
     x1="258.2984"
     x2="258.2984"
     y1="198.8799"
     y2="262.72"
     id="line53" />
  <polygon
     fill="#454645"
     points="254.2984,248.72 258.2984,258.72 262.2984,248.72 258.2984,252.72 "
     style="stroke:#454645;stroke-width:1"
     id="polygon53"
     transform="translate(0,4)" />
  <text
     fill="#000000"
     font-family="'JetBrains Mono NL'"
     font-size="11px"
     lengthAdjust="spacing"
     textLength="13.1999"
     x="262.2984"
     y="225.7599"
     id="text53"
     transform="translate(0,4)">no</text>
  <line
     style="stroke:#454645;stroke-width:1.5"
     x1="317.0983"
     x2="317.0983"
     y1="146.8401"
     y2="146.8401"
     id="line54" />
  <line
     style="stroke:#454645;stroke-width:1.5"
     x1="317.0983"
     x2="258.2984"
     y1="146.8401"
     y2="146.8401"
     id="line55" />
  <line
     style="stroke:#454645;stroke-width:1.5"
     x1="258.2984"
     x2="258.2984"
     y1="146.0901"
     y2="161.8401"
     id="line56" />
  <polygon
     fill="#454645"
     points="254.2984,147.8401 258.2984,157.8401 262.2984,147.8401 258.2984,151.8401 "
     style="stroke:#454645;stroke-width:1"
     id="polygon56"
     transform="translate(0,4)" />
  <line
     style="stroke:#454645;stroke-width:1.5"
     x1="258.2984"
     x2="258.2984"
     y1="286.72"
     y2="336.31009"
     id="line57" />
  <line
     style="stroke:#454645;stroke-width:1.5"
     x1="258.2984"
     x2="317.0983"
     y1="335.56009"
     y2="335.56009"
     id="line58" />
  <text
     fill="#000000"
     font-family="'JetBrains Mono NL'"
     font-size="11px"
     lengthAdjust="spacing"
     textLength="13.1999"
     x="262.2984"
     y="333.60001"
     id="text59"
     transform="translate(0,-22)">no</text>
  <line
     style="stroke:#454645;stroke-width:1.5"
     x1="317.0983"
     x2="317.0983"
     y1="137.8401"
     y2="147.5901"
     id="line60" />
  <line
     style="stroke:#454645;stroke-width:1.5"
     x1="405.69769"
     x2="516.09729"
     y1="411.10001"
     y2="411.10001"
     id="line61" />
  <polygon
     fill="#454645"
     points="520.0973,279.2001 516.0973,275.2001 512.0973,279.2001 516.0973,269.2001 "
     style="stroke:#454645;stroke-width:1.5"
     id="polygon61" />
  <line
     style="stroke:#454645;stroke-width:1.5"
     x1="516.09729"
     x2="516.09729"
     y1="125.0901"
     y2="411.85001"
     id="line62" />
  <line
     style="stroke:#454645;stroke-width:1.5"
     x1="516.09729"
     x2="329.0983"
     y1="125.8401"
     y2="125.8401"
     id="line63" />
  <polygon
     fill="#454645"
     points="339.0983,129.8401 335.0983,125.8401 339.0983,121.8401 329.0983,125.8401 "
     style="stroke:#454645;stroke-width:1"
     id="polygon63" />
  <line
     style="stroke:#454645;stroke-width:1.5"
     x1="317.0983"
     x2="317.0983"
     y1="334.81009"
     y2="399.09998"
     id="line64" />
  <polygon
     fill="#454645"
     points="321.0983,389.1 317.0983,393.1 313.0983,389.1 317.0983,399.1 "
     style="stroke:#454645;stroke-width:1"
     id="polygon64" />
  <line
     style="stroke:#454645;stroke-width:1.5"
     x1="317.0983"
     x2="317.0983"
     y1="93.840103"
     y2="113.8401"
     id="line65" />
  <polygon
     fill="#454645"
     points="321.0983,103.8401 317.0983,107.8401 313.0983,103.8401 317.0983,113.8401 "
     style="stroke:#454645;stroke-width:1"
     id="polygon65" />
  <line
     style="stroke:#454645;stroke-width:1.5"
     x1="385.59781"
     x2="375.59781"
     y1="833.69989"
     y2="833.69989"
     id="line66" />
  <line
     style="stroke:#454645;stroke-width:1.5"
     x1="375.59781"
     x2="375.59781"
     y1="832.94989"
     y2="855.69989"
     id="line67" />
  <polygon
     fill="#454645"
     points="375.5978,849.6999 379.5978,839.6999 375.5978,843.6999 371.5978,839.6999 "
     style="stroke:#454645;stroke-width:1"
     id="polygon67"
     transform="translate(0,6)" />
  <line
     style="stroke:#454645;stroke-width:1.5"
     x1="569.39648"
     x2="579.39648"
     y1="833.69989"
     y2="833.69989"
     id="line68" />
  <line
     style="stroke:#454645;stroke-width:1.5"
     x1="579.39648"
     x2="579.39648"
     y1="832.94989"
     y2="855.69989"
     id="line69" />
  <polygon
     fill="#454645"
     points="579.3965,849.6999 583.3965,839.6999 579.3965,843.6999 575.3965,839.6999 "
     style="stroke:#454645;stroke-width:1"
     id="polygon69"
     transform="translate(0,6)" />
  <line
     style="stroke:#454645;stroke-width:1.5"
     x1="276.3981"
     x2="475.6972"
     y1="520.61987"
     y2="520.61987"
     id="line70" />
  <line
     style="stroke:#454645;stroke-width:1.5"
     x1="475.6972"
     x2="475.6972"
     y1="519.86987"
     y2="539.13977"
     id="line71" />
  <polygon
     fill="#454645"
     points="479.6972,529.1398 475.6972,533.1398 471.6972,529.1398 475.6972,539.1398 "
     style="stroke:#454645;stroke-width:1"
     id="polygon71" />
  <line
     style="stroke:#454645;stroke-width:1.5"
     x1="273.09821"
     x2="475.6972"
     y1="614.97992"
     y2="614.97992"
     id="line72" />
  <line
     style="stroke:#454645;stroke-width:1.49999"
     x1="475.69724"
     x2="475.69724"
     y1="614.22992"
     y2="632.97992"
     id="line73" />
  <polygon
     fill="#454645"
     points="475.6972,626.9799 479.6972,616.9799 475.6972,620.9799 471.6972,616.9799 "
     style="stroke:#454645;stroke-width:1"
     id="polygon73"
     transform="translate(0,6)" />
  <line
     style="stroke:#454645;stroke-width:1.5"
     x1="266.4982"
     x2="475.6972"
     y1="709.3399"
     y2="709.3399"
     id="line74" />
  <line
     style="stroke:#454645;stroke-width:1.5"
     x1="475.6972"
     x2="475.6972"
     y1="708.5899"
     y2="727.8598"
     id="line75" />
  <polygon
     fill="#454645"
     points="479.6972,717.8598 475.6972,721.8598 471.6972,717.8598 475.6972,727.8598 "
     style="stroke:#454645;stroke-width:1"
     id="polygon75" />
  <line
     style="stroke:#454645;stroke-width:1.5"
     x1="220.2986"
     x2="477.49719"
     y1="803.69989"
     y2="803.69989"
     id="line76" />
  <line
     style="stroke:#454645;stroke-width:1.49999"
     x1="477.49719"
     x2="477.49719"
     y1="802.94989"
     y2="821.69989"
     id="line77" />
  <polygon
     fill="#454645"
     points="477.4972,815.6999 481.4972,805.6999 477.4972,809.6999 473.4972,805.6999 "
     style="stroke:#454645;stroke-width:1"
     id="polygon77"
     transform="translate(0,6)" />
  <line
     style="stroke:#454645;stroke-width:1.5"
     x1="148.1991"
     x2="148.1991"
     y1="539.13977"
     y2="602.97992"
     id="line78" />
  <polygon
     fill="#454645"
     points="152.1991,592.9799 148.1991,596.9799 144.1991,592.9799 148.1991,602.9799 "
     style="stroke:#454645;stroke-width:1"
     id="polygon78" />
  <text
     fill="#000000"
     font-family="'JetBrains Mono NL'"
     font-size="11px"
     lengthAdjust="spacing"
     textLength="13.1999"
     x="152.1991"
     y="570.01978"
     id="text78">no</text>
  <line
     style="stroke:#454645;stroke-width:1.5"
     x1="148.1991"
     x2="148.1991"
     y1="626.97992"
     y2="690.82001"
     id="line79" />
  <polygon
     fill="#454645"
     points="152.1991,680.82 148.1991,684.82 144.1991,680.82 148.1991,690.82 "
     style="stroke:#454645;stroke-width:1"
     id="polygon79" />
  <text
     fill="#000000"
     font-family="'JetBrains Mono NL'"
     font-size="11px"
     lengthAdjust="spacing"
     textLength="13.1999"
     x="152.1991"
     y="657.85999"
     id="text79">no</text>
  <line
     style="stroke:#454645;stroke-width:1.5"
     x1="148.1991"
     x2="148.1991"
     y1="727.8598"
     y2="791.69989"
     id="line80" />
  <polygon
     fill="#454645"
     points="152.1991,781.6999 148.1991,785.6999 144.1991,781.6999 148.1991,791.6999 "
     style="stroke:#454645;stroke-width:1"
     id="polygon80" />
  <text
     fill="#000000"
     font-family="'JetBrains Mono NL'"
     font-size="11px"
     lengthAdjust="spacing"
     textLength="13.1999"
     x="152.1991"
     y="758.73981"
     id="text80">no</text>
  <line
     style="stroke:#454645;stroke-width:1.5"
     x1="317.0983"
     x2="317.0983"
     y1="487.10001"
     y2="487.10001"
     id="line81" />
  <line
     style="stroke:#454645;stroke-width:1.5"
     x1="317.0983"
     x2="148.1991"
     y1="487.10001"
     y2="487.10001"
     id="line82" />
  <line
     style="stroke:#454645;stroke-width:1.5"
     x1="148.1991"
     x2="148.1991"
     y1="486.35001"
     y2="502.10001"
     id="line83" />
  <polygon
     fill="#454645"
     points="152.1991,492.1 148.1991,496.1 144.1991,492.1 148.1991,502.1 "
     style="stroke:#454645;stroke-width:1"
     id="polygon83" />
  <line
     style="stroke:#454645;stroke-width:1.5"
     x1="148.1991"
     x2="148.1991"
     y1="815.69989"
     y2="881.28998"
     id="line84" />
  <line
     style="stroke:#454645;stroke-width:1.5"
     x1="148.1991"
     x2="317.0983"
     y1="880.53998"
     y2="880.53998"
     id="line85" />
  <text
     fill="#000000"
     font-family="'JetBrains Mono NL'"
     font-size="11px"
     lengthAdjust="spacing"
     textLength="13.1999"
     x="152.1991"
     y="886.58002"
     id="text86"
     transform="translate(0,-40)">no</text>
  <line
     style="stroke:#454645;stroke-width:1.5"
     x1="317.0983"
     x2="317.0983"
     y1="482.10001"
     y2="487.10001"
     id="line87" />
  <line
     style="stroke:#454645;stroke-width:1.5"
     x1="399.09781"
     x2="618.19659"
     y1="951.53998"
     y2="951.53998"
     id="line88" />
  <polygon
     fill="#454645"
     points="622.1966,737.82 618.1966,733.82 614.1966,737.82 618.1966,727.82 "
     style="stroke:#454645;stroke-width:1.5"
     id="polygon88" />
  <line
     style="stroke:#454645;stroke-width:1.5"
     x1="618.19659"
     x2="618.19659"
     y1="469.35001"
     y2="952.28998"
     id="line89" />
  <line
     style="stroke:#454645;stroke-width:1.5"
     x1="618.19659"
     x2="329.0983"
     y1="470.10001"
     y2="470.10001"
     id="line90" />
  <polygon
     fill="#454645"
     points="339.0983,474.1 335.0983,470.1 339.0983,466.1 329.0983,470.1 "
     style="stroke:#454645;stroke-width:1"
     id="polygon90" />
  <line
     style="stroke:#454645;stroke-width:1.5"
     x1="317.0983"
     x2="317.0983"
     y1="879.78998"
     y2="939.53998"
     id="line91" />
  <polygon
     fill="#454645"
     points="317.0983,951.54 313.0983,947.54 317.0983,957.54 321.0983,947.54 "
     style="stroke:#454645;stroke-width:1"
     id="polygon91"
     transform="translate(0,-18)" />
  <line
     style="stroke:#454645;stroke-width:1.5"
     x1="317.0983"
     x2="317.0983"
     y1="423.10001"
     y2="458.10001"
     id="line92" />
  <polygon
     fill="#454645"
     points="321.0983,448.1 317.0983,452.1 313.0983,448.1 317.0983,458.1 "
     style="stroke:#454645;stroke-width:1"
     id="polygon92" />
  <line
     style="stroke:#454645;stroke-width:1.5"
     x1="208.6991"
     x2="198.6991"
     y1="1017.0599"
     y2="1017.0599"
     id="line93" />
  <line
     style="stroke:#454645;stroke-width:1.5"
     x1="198.6991"
     x2="198.6991"
     y1="1016.3099"
     y2="1045.5798"
     id="line94" />
  <polygon
     fill="#454645"
     points="198.6991,1057.5798 194.6991,1053.5798 198.6991,1063.5798 202.6991,1053.5798 "
     style="stroke:#454645;stroke-width:1"
     id="polygon94"
     transform="translate(0,-18)" />
  <line
     style="stroke:#454645;stroke-width:1.5"
     x1="425.4975"
     x2="435.4975"
     y1="1017.0599"
     y2="1017.0599"
     id="line95" />
  <line
     style="stroke:#454645;stroke-width:1.5"
     x1="435.4975"
     x2="435.4975"
     y1="1016.3099"
     y2="1045.5798"
     id="line96" />
  <polygon
     fill="#454645"
     points="435.4975,1057.5798 431.4975,1053.5798 435.4975,1063.5798 439.4975,1053.5798 "
     style="stroke:#454645;stroke-width:1"
     id="polygon96"
     transform="translate(0,-18)" />
  <line
     style="stroke:#454645;stroke-width:1.5"
     x1="317.0983"
     x2="317.0983"
     y1="963.53998"
     y2="998.53998"
     id="line97" />
  <polygon
     fill="#454645"
     points="317.0983,1010.54 313.0983,1006.54 317.0983,1016.54 321.0983,1006.54 "
     style="stroke:#454645;stroke-width:1"
     id="polygon97"
     transform="translate(0,-18)" />
</svg>
